PathFileType	4	(X/Y/Z)	Kaydara	
DataRate	CameraRate	NumFrames	NumMarkers	Units	OrigDataRate	OrigDataStartFrame	OrigNumFrames	
120.00	120.00	4	72	mm	120.00	196	261	
Frame#	Time	Hips			RightUpLeg			RightLeg			RightFoot			RightFoot_End			LeftUpLeg			LeftLeg			LeftFoot			LeftFoot_End			Spine			Spine1			Spine2			Spine3			Neck			Head			Head_End			RightShoulder			RightArm			RightForeArm			RightHand			RightHandThumb1			RightHandThumb2			RightHandThumb3			RightHandThumb3_End			RightInHandIndex			RightHandIndex1			RightHandIndex2			RightHandIndex3			RightHandIndex3_End			RightInHandMiddle			RightHandMiddle1			RightHandMiddle2			RightHandMiddle3			RightHandMiddle3_End			RightInHandRing			RightHandRing1			RightHandRing2			RightHandRing3			RightHandRing3_End			RightInHandPinky			RightHandPinky1			RightHandPinky2			RightHandPinky3			RightHandPinky3_End			LeftShoulder			LeftArm			LeftForeArm			LeftHand			LeftHandThumb1			LeftHandThumb2			LeftHandThumb3			LeftHandThumb3_End			LeftInHandIndex			LeftHandIndex1			LeftHandIndex2			LeftHandIndex3			LeftHandIndex3_End			LeftInHandMiddle			LeftHandMiddle1			LeftHandMiddle2			LeftHandMiddle3			LeftHandMiddle3_End			LeftInHandRing			LeftHandRing1			LeftHandRing2			LeftHandRing3			LeftHandRing3_End			LeftInHandPinky			LeftHandPinky1			LeftHandPinky2			LeftHandPinky3			LeftHandPinky3_End			
		X1	Y1	Z1	X2	Y2	Z2	X3	Y3	Z3	X4	Y4	Z4	X5	Y5	Z5	X6	Y6	Z6	X7	Y7	Z7	X8	Y8	Z8	X9	Y9	Z9	X10	Y10	Z10	X11	Y11	Z11	X12	Y12	Z12	X13	Y13	Z13	X14	Y14	Z14	X15	Y15	Z15	X16	Y16	Z16	X17	Y17	Z17	X18	Y18	Z18	X19	Y19	Z19	X20	Y20	Z20	X21	Y21	Z21	X22	Y22	Z22	X23	Y23	Z23	X24	Y24	Z24	X25	Y25	Z25	X26	Y26	Z26	X27	Y27	Z27	X28	Y28	Z28	X29	Y29	Z29	X30	Y30	Z30	X31	Y31	Z31	X32	Y32	Z32	X33	Y33	Z33	X34	Y34	Z34	X35	Y35	Z35	X36	Y36	Z36	X37	Y37	Z37	X38	Y38	Z38	X39	Y39	Z39	X40	Y40	Z40	X41	Y41	Z41	X42	Y42	Z42	X43	Y43	Z43	X44	Y44	Z44	X45	Y45	Z45	X46	Y46	Z46	X47	Y47	Z47	X48	Y48	Z48	X49	Y49	Z49	X50	Y50	Z50	X51	Y51	Z51	X52	Y52	Z52	X53	Y53	Z53	X54	Y54	Z54	X55	Y55	Z55	X56	Y56	Z56	X57	Y57	Z57	X58	Y58	Z58	X59	Y59	Z59	X60	Y60	Z60	X61	Y61	Z61	X62	Y62	Z62	X63	Y63	Z63	X64	Y64	Z64	X65	Y65	Z65	X66	Y66	Z66	X67	Y67	Z67	X68	Y68	Z68	X69	Y69	Z69	X70	Y70	Z70	X71	Y71	Z71	X72	Y72	Z72	

196	1.625	6081.203	893.81699	129.612	6108.096918487806	859.3786322803	64.25074872934916	6007.076285794852	456.6325176294807	31.682320731645085	6111.424348791108	112.2941204433288	-82.77434623628136	6030.123209531613	19.199415683849793	57.44369901656522	6065.624266362454	902.0002858162234	209.2465445738216	5966.026041115883	510.5661555459487	317.1832595000764	5870.38051680392	81.97099209930369	379.4106322281045	5723.301742125744	13.815488950951355	279.7001105483513	6035.9323909017585	1016.0714119613159	72.11874039486763	5983.65189637138	1081.3898352433114	23.02037143333684	5924.613474779766	1144.1253080897309	-29.789414080832234	5861.606464419486	1195.2413973160576	-82.91518059394701	5793.6133438292045	1250.882423299441	-137.95347617402757	5728.973054004192	1299.9776926599438	-184.93068309039973	5589.942753002188	1376.962458739325	-194.94029922631455	5822.952589022968	1221.6715927828423	-139.0588333046628	5840.6008345988175	1173.1724820777106	-202.04635881691226	5847.995108342181	991.7157872796618	-125.62758673596453	5825.843258408632	828.4302958951334	-129.69222198510957	5823.921660114863	829.6666822271275	-142.12242588070825	5814.975087698278	824.0238006883359	-147.1641297916236	5809.133113511335	817.1478450241461	-148.84349055517708	5804.595195390002	808.8952201927746	-148.67654732997198	5825.962298705962	818.8881425678339	-137.02340739549106	5824.013455613372	794.808234866935	-140.01910881583478	5818.252819947801	779.8161718903037	-140.35921645755673	5812.088656681965	775.7330206353034	-140.87265432534332	5805.244410995044	775.8861943203372	-141.50132923268015	5826.8772201899255	811.7968388626769	-131.85433858690357	5825.472515699615	784.4738301262265	-131.9808028713718	5819.308060139069	767.2591348503521	-131.65798508621904	5811.929539865927	761.9225132600353	-131.94442730406232	5804.469046147134	761.8905807830218	-132.47042816022295	5827.620217359296	807.3593393871099	-128.13228488331404	5827.143439318478	778.8975880770361	-125.03314849087562	5821.896401390371	763.0624453638511	-124.04222781262712	5814.846099285576	757.4736860056396	-123.9417138611347	5807.863039194742	757.2346100320881	-124.25772385970006	5828.163770658762	803.2731639655422	-123.7057044772825	5828.218223995263	774.5004800952752	-118.15645598569859	5824.214778024579	760.648648103928	-116.2694548830462	5819.168126520259	756.0054245685371	-115.66717053323809	5813.037446837807	755.4674667139254	-115.64267812138888	5808.818761820401	1242.2557629608095	-99.5687508662611	5794.472270232901	1246.5410140922604	-16.95193482590095	5840.959583299531	1053.0925087745502	-37.926655884190154	5877.344338776065	875.9154185399478	-79.4331278267702	5877.446800830699	877.0971908039272	-96.82105540268297	5889.977311930871	867.8541501281331	-105.4211941313805	5899.652967432113	858.3144428183386	-109.41020189443734	5908.531333363413	847.7071926917946	-111.02460837859638	5879.928415913493	866.0584859474437	-91.74658434029357	5891.432253148217	839.5903102063044	-100.98031727449685	5904.411572112026	821.3005692458484	-104.73458891373897	5913.544896843475	814.5823139502937	-106.51500835489267	5921.82230317705	812.159852288151	-107.61523164545686	5882.34665776337	858.5466313692772	-85.85818940068268	5894.873763482676	828.6671679085753	-91.68022127116765	5909.324760545756	807.8042648693959	-94.96663052445169	5920.481973496616	799.2645935910766	-96.72582350043216	5929.606141431462	796.4028335917337	-97.74064830202825	5883.719577420059	853.8880667785781	-81.47829577926967	5896.015251230087	822.987530409405	-82.94042328121667	5908.885861965911	803.9255676604296	-84.96736137281853	5919.793958693433	795.2222405431307	-86.21947684554313	5928.442198709617	792.3105767962464	-86.96290164003454	5885.299587963322	849.4972650165917	-76.03755604828146	5897.413935638471	818.3498677263626	-74.08070829998191	5908.096068647241	801.851279599538	-74.39070558722325	5916.234279119228	794.9058761389738	-74.66881222926207	5923.9998402679275	791.9829471855012	-74.9618073349057
197	1.633	6081.203	893.81699	129.612	6105.834701168281	858.3207149362441	63.862981741011254	6006.335689820775	455.2547033013795	31.82353828138681	6112.6229711534	112.61333649217411	-86.26440025897443	6032.782783301481	18.56868532492896	53.959604669145584	6067.858144978486	903.0391195855675	209.6186482059643	5967.8373623261095	511.49167005544507	316.6988161326847	5872.08333161738	82.36196766106319	376.43243977401806	5725.035719495749	13.44722456068309	277.14779573129965	6036.303484285025	1016.1368729892895	72.00254548464798	5984.0940472583	1081.5888574552323	23.015177058814952	5925.094324700716	1144.4906158368005	-29.625688793399974	5862.051913466156	1195.803394941304	-82.49059137660171	5794.04190496231	1251.6329289256798	-137.28833237358097	5729.57374454713	1301.0374106855381	-184.169250566606	5590.497564748641	1377.9570683239851	-193.82154024703635	5822.655170296147	1221.665666244698	-138.31492671035548	5837.3163675057485	1170.578368678357	-199.72339057346673	5843.734400879234	992.616857044	-117.22142307705569	5815.656036224614	829.6903287642797	-115.31672800884934	5813.290823659468	830.7939497820059	-126.91443354409557	5804.44330053821	825.119303106252	-130.75410028030325	5798.659781687117	818.232981497944	-131.57890032082145	5794.161593398803	809.981771349351	-130.68460858316058	5815.185525158782	820.0368113713089	-121.69283778559148	5812.589072202202	795.867371774028	-123.09309383922098	5806.738400118147	780.8587123566388	-122.23532919951188	5800.775039057968	776.7877045423999	-122.0939919782098	5794.270201919991	776.9660801527114	-122.24137830269652	5816.111508893146	812.9827689690032	-116.52764236237054	5814.08102595315	785.5925750493959	-115.10007736878848	5807.822333355467	768.3650338566521	-113.47571942623766	5800.687998974467	763.0455890074147	-112.97487601417467	5793.59981588859	763.0424601213514	-112.97556116245596	5816.874988018195	808.573474172942	-112.84949632363805	5815.8438752167785	780.0748100423348	-108.39709405053547	5810.519828255006	764.2339615840646	-106.27989012357078	5803.707786736528	758.6646864732886	-105.42430194453452	5797.076083577688	758.4540750266951	-105.24843250499896	5817.4913137692	804.5255913382434	-108.51613678940656	5817.069038822567	775.7412702452823	-101.7841723259384	5813.01437345931	761.8935993300206	-99.01388902305604	5808.146563648685	757.2688108553679	-97.86984963553863	5802.330037339586	756.7584983627532	-97.41481123899334	5809.983393893614	1243.6714673990402	-99.10281497894877	5798.183461960089	1251.3238342837715	-16.78947136769706	5840.263703078463	1056.3372770519175	-32.03762063395445	5870.569884883753	877.5264760965268	-68.61719886203318	5869.870192685037	878.491828077926	-85.63731211127744	5881.306545425509	868.9779729772399	-94.38248753956763	5890.214532309775	859.260821064046	-98.44326326396134	5898.448052800885	848.5151822024104	-100.09248917706854	5872.271021795565	867.478865991965	-80.354496975562	5882.347018335626	840.7362634240752	-88.90155704411116	5894.262023068385	822.2254911845826	-92.5507892730573	5902.8103046918	815.3655337193736	-94.54764431398132	5910.655167670882	812.8228934845491	-96.0170527199322	5874.7201072982625	860.0054622811765	-74.42820642410585	5885.871243603029	829.879137766925	-79.55987417172679	5899.169475059366	808.7809717616627	-82.72935720664897	5909.6249884668605	800.0731858778519	-84.74856544962906	5918.277885018736	797.0813111299403	-86.16680803186878	5876.151650438653	855.3813896680005	-70.03494903379699	5887.2662300023685	824.2905044501717	-70.85473712284872	5899.143053289328	805.0299282278761	-72.7785372388005	5909.380129538055	796.1678625055106	-74.28080826443481	5917.588015924352	793.1354794970069	-75.40323984480447	5877.837472027756	851.0357439178076	-64.63110376226588	5888.934627823906	819.7425951955886	-62.09382750743309	5898.8432306414015	803.0958435233582	-62.322156516383416	5906.5027630468185	796.0399179003377	-62.78317312914382	5913.884438986473	793.0130799215852	-63.412162986190005
198	1.642	6081.203	893.81699	129.612	6103.5663007794565	857.2703710940324	63.49771213455118	6005.620530608211	453.88030875368867	31.972940366187814	6113.803018470739	112.94219652565998	-89.7554180125561	6035.435911896142	17.93942817626262	50.47079375269616	6070.097408939738	904.0700546741184	209.96831267060972	5969.638309862218	512.412805459311	316.1890755082702	5873.757709155374	82.76657568096576	373.4621397955726	5726.750254655655	13.090643437970769	274.5939331033674	6036.676393706486	1016.2021988754801	71.88423377760394	5984.538339905427	1081.7890802794436	23.009649233974915	5925.577543138799	1144.8589007998148	-29.45976954815014	5862.499917703354	1196.370973995589	-82.0602260154091	5794.472680367045	1252.3914270987023	-136.61337455509766	5730.173493190981	1302.1059050245135	-183.39151367103432	5591.051743717829	1378.9609502095009	-192.68122495525864	5822.356261740975	1221.673241427817	-137.55148678967467	5834.0199590731245	1168.0321878732616	-197.3315125918409	5839.566987994396	993.6564623114909	-108.76413897346367	5805.618440151138	831.222529370145	-100.8496088151808	5802.817847122193	832.215294609714	-111.6008733612209	5794.085186864362	826.5206329817286	-114.23428777833416	5788.371138055235	819.6315784945482	-114.20281941102216	5783.921863904377	811.3876760702981	-112.58080583632574	5804.566748790881	821.480841154319	-106.25901128012379	5801.338198043926	797.2498872553824	-106.05411158378699	5795.411627261872	782.2374823296876	-103.99604893561569	5789.658487293875	778.1812328421705	-103.20055963878946	5783.501279317917	778.3833494236485	-102.86861053504404	5805.503419553306	814.4612736824558	-101.10157237061043	5802.8620842630935	787.029716839058	-98.11260603311783	5796.5244860384555	769.8028858197705	-95.18461025941326	5789.6456551931515	764.5035484361943	-93.89749644953113	5782.9387552656	764.5275156740406	-93.37513113568275	5806.286688852761	810.0775694967867	-97.47028732859337	5804.713927301772	781.5630684979003	-91.66046518049484	5799.326113275052	765.727811215041	-88.41572312008589	5792.763184879978	760.1805718378955	-86.8063445258857	5786.491244650693	759.9966889446838	-86.14086987085187	5806.974783301623	806.0636074316562	-93.23413235277705	5806.0866983162905	777.2845268032927	-85.31796754832584	5801.99117345252	763.4491615882259	-81.6643102274181	5797.310003295601	758.8442331413899	-79.97989389689472	5791.815008838302	758.3597772395708	-79.09657829238648	5811.154765173584	1245.088345420044	-98.63971722379144	5801.915389200723	1256.1009663739499	-16.690054890985316	5839.644630630588	1059.6672737581132	-26.149743075834117	5863.884832065716	879.3557710631655	-57.73586914682976	5862.382713069166	880.1283618164416	-74.37166815120541	5872.71435939394	870.3607122445349	-83.24701301816144	5880.847580841157	860.4775904370863	-87.37011999800878	5888.430552462775	849.6028054480904	-89.04708270830224	5864.7047610339705	869.1429352937741	-68.88214225163141	5873.35155919946	842.1591698282075	-76.7238137881814	5884.195227375944	823.445295466991	-80.2557275867557	5892.150666795977	816.4496442643094	-82.46249883878501	5899.554215240102	813.7883328125477	-84.29644801525322	5867.185125395615	861.705548522522	-62.92113661902181	5876.959205180366	831.3634925641686	-67.34590568110382	5889.097062518445	810.0491923018371	-70.38554494623801	5898.841493081998	801.1803317337655	-72.65713402176104	5907.013533631786	798.059889935667	-74.4738249114827	5868.675697204749	857.1134566184305	-58.51723480015807	5878.608744513755	825.8581081214547	-58.68221028981126	5889.485205193872	806.4150961976	-60.492131501126764	5899.042239996162	797.4008196047045	-62.23746918139591	5906.800774995541	794.2490480097914	-63.734365368563175	5870.4673393514495	852.8086586490846	-53.15400212238803	5880.547118575973	821.3910470706842	-50.027125425617555	5889.677015573919	804.6082010253513	-50.16604787707277	5896.851333282525	797.4460863089191	-50.80522108733278	5903.841178384641	794.3162715768042	-51.76642221980942
199	1.65	6081.203	893.81699	129.612	6101.294191155053	856.2285897536044	63.15486557806085	6004.931044347998	452.5108847914412	32.12965373122912	6114.96393484643	113.28024871790167	-93.2440315135605	6038.080056444526	17.312235316012483	46.98040796606437	6072.339678479388	905.0921347479753	210.29560550321412	5971.427361395017	513.3286897077769	315.6552820532031	5875.402854563351	83.18384967318224	370.5024232443005	5728.444278147079	12.745465784297867	272.04114515310437	6037.050476692323	1016.2673068727679	71.7640597859511	5984.983978858902	1081.9902657697303	23.00398814536159	5926.062229172394	1145.229732421596	-29.291580491215427	5862.949572130242	1196.9434653601181	-81.62425845746908	5794.904757578844	1253.1570289058811	-135.92901167617342	5730.771311145838	1303.182015206313	-182.59808073112362	5591.604410083551	1379.9730943895051	-191.52037502278841	5822.055878669808	1221.694125004601	-136.76926020101317	5830.715436076649	1165.5360165536852	-194.87438494767127	5835.495850375497	994.8308446574212	-100.26681220558797	5795.738963654632	833.0201721287328	-86.31004437284169	5792.51210157155	833.9236811300666	-96.20261756857067	5783.909729151306	828.2202786382386	-97.62733221837453	5778.275824870289	821.3357922902303	-96.73906818640484	5773.884305991273	813.1048133961732	-94.38990023843303	5794.115292517576	823.2131773115588	-90.74277902053211	5790.270642154275	798.9481735795775	-88.92535786641722	5784.282003220916	783.944429405421	-85.66617636365788	5778.747976950374	779.9052872028553	-84.2180003343397	5772.945956968413	780.1294707927352	-83.40926131399866	5795.062038178528	816.2253134670077	-85.59675925948498	5791.8251228061345	788.7776846248132	-81.04118718053886	5785.42358153494	771.5646383508213	-76.80917041388491	5778.810920784829	766.2880201048373	-74.73780005035992	5772.49354458383	766.3371437944922	-73.69528909663168	5795.864232287274	811.864611077519	-82.01507334262666	5793.762685677494	783.354896347487	-74.84543436969787	5788.323990081115	767.5361120890063	-70.47335270114951	5782.020380736625	762.0131546345527	-68.11240898965309	5776.115912401574	761.8540471529067	-66.96019439524909	5796.62282872592	807.8802392098478	-77.87978743827833	5795.279873748937	779.1228883185274	-68.77935483055904	5791.153508401451	765.3076502354886	-64.24332393552348	5786.6662774075	760.7237885398506	-62.020560856702836	5781.499560392824	760.2632106380145	-60.71174047209645	5812.331029884879	1246.5049119818211	-98.17941079270558	5805.662882765823	1260.867089764329	-16.652161534246012	5839.101904106784	1063.0768721526294	-20.26937092938426	5857.29501297642	881.3973931472544	-46.80243627175114	5854.991614052056	882.0008080873051	-63.03860263325545	5864.209741346147	871.9966161862503	-72.02944071664982	5871.562249396384	861.9591539162803	-76.20553687372595	5878.489875401393	850.9645884274244	-77.90319977622997	5857.236774008003	871.0446429648648	-57.34407931463162	5864.454914153504	843.8528902641037	-64.46295867902997	5874.22169335768	824.9539695453855	-67.86560408586247	5881.5773884937835	817.828827489526	-70.27558566828233	5888.531582330727	815.0505911951493	-72.46901312346874	5859.748631079884	863.6408322482575	-51.35136123429868	5868.146298751581	833.114084546062	-55.053880700944255	5879.1177422454475	811.6029164921929	-57.951089255207386	5888.14277199889	802.5802555702126	-60.467186075368964	5895.825163685912	799.3330558577052	-62.67689163122715	5861.2984303947305	859.0782051496649	-46.93938110172866	5870.050875630922	827.6841885720785	-46.43801596204722	5879.921727238559	808.0750385453134	-48.123574482343216	5888.790706691947	798.9153047945146	-50.104643245474406	5896.091627268865	795.6457210446597	-51.9710176183471	5863.195621817819	854.8099594832	-41.620217749541496	5872.2589170582805	823.2890919516507	-37.89529476806981	5880.605930295707	806.3823166897082	-37.93722573539769	5887.289199172744	799.1185107932585	-38.74959682115553	5893.879900200477	795.8868692885005	-40.0388175951402
